<svg width="32" height="32" viewBox="0 0 32 32" fill="none" xmlns="http://www.w3.org/2000/svg">
<g id="Visa">
<circle id="Ellipse 60" cx="16" cy="16" r="16" fill="#F2F2F2"/>
<g id="g4158">
<path id="polygon9" d="M14.2661 20.3292H12.2637L13.5161 12.585H15.5184L14.2661 20.3292Z" fill="#00579F"/>
<path id="path11" d="M21.5253 12.774C21.1303 12.6173 20.5038 12.4443 19.7292 12.4443C17.7518 12.4443 16.3593 13.4988 16.3508 15.0064C16.3343 16.1187 17.3477 16.7365 18.1057 17.1074C18.8804 17.4863 19.1438 17.7337 19.1438 18.0715C19.1359 18.5903 18.5177 18.8294 17.9412 18.8294C17.1418 18.8294 16.7134 18.7061 16.0624 18.4175L15.7988 18.2938L15.5186 20.0322C15.9882 20.2461 16.8535 20.436 17.7518 20.4443C19.8529 20.4443 21.2207 19.4062 21.2369 17.7996C21.2449 16.918 20.7098 16.2425 19.5561 15.6905C18.8558 15.3362 18.4269 15.0973 18.4269 14.7347C18.4351 14.4051 18.7896 14.0675 19.5802 14.0675C20.2312 14.051 20.7095 14.2075 21.0718 14.3641L21.2529 14.4463L21.5253 12.774Z" fill="#00579F"/>
<path id="path13" d="M24.1869 17.5857C24.3518 17.1408 24.9864 15.4189 24.9864 15.4189C24.9781 15.4354 25.151 14.9658 25.2498 14.6775L25.3898 15.3448C25.3898 15.3448 25.769 17.1985 25.8513 17.5857C25.5384 17.5857 24.5824 17.5857 24.1869 17.5857ZM26.6586 12.585H25.1098C24.6321 12.585 24.2693 12.7249 24.0632 13.2275L21.0889 20.3291H23.1899C23.1899 20.3291 23.5358 19.3732 23.6102 19.1674C23.8407 19.1674 25.8846 19.1674 26.1811 19.1674C26.2386 19.4393 26.42 20.3291 26.42 20.3291H28.2741L26.6586 12.585Z" fill="#00579F"/>
<path id="path15" d="M10.5922 12.585L8.63119 17.8658L8.4169 16.7948C8.05435 15.559 6.91731 14.2163 5.64844 13.5487L7.44466 20.321H9.56215L12.7096 12.585H10.5922Z" fill="#00579F"/>
<path id="path17" d="M6.80933 12.585H3.58765L3.55469 12.7414C6.0678 13.3841 7.73219 14.9332 8.41601 16.7951L7.71565 13.2359C7.60035 12.7413 7.24601 12.6013 6.80933 12.585Z" fill="#FAA61A"/>
</g>
</g>
</svg>
