<svg width="32" height="32" viewBox="0 0 32 32" fill="none" xmlns="http://www.w3.org/2000/svg">
<g id="Mastercard">
<circle id="Ellipse 60" cx="16" cy="16" r="16" fill="#F2F2F2"/>
<g id="g13">
<path id="XMLID_1775_" d="M9.38408 23.3424V22.2686C9.38408 21.857 9.13412 21.5886 8.70561 21.5886C8.49136 21.5886 8.25925 21.6602 8.09856 21.8928C7.97358 21.696 7.79503 21.5886 7.52721 21.5886C7.34867 21.5886 7.17013 21.6423 7.02729 21.8391V21.6244H6.65234V23.3424H7.02729V22.3939C7.02729 22.0897 7.18798 21.9465 7.43794 21.9465C7.6879 21.9465 7.81289 22.1076 7.81289 22.3939V23.3424H8.18783V22.3939C8.18783 22.0897 8.36637 21.9465 8.59848 21.9465C8.84845 21.9465 8.97343 22.1076 8.97343 22.3939V23.3424H9.38408ZM14.9368 21.6244H14.3298V21.1054H13.9548V21.6244H13.6156V21.9644H13.9548V22.7518C13.9548 23.1455 14.1155 23.3782 14.544 23.3782C14.7047 23.3782 14.8833 23.3245 15.0082 23.2529L14.9011 22.9308C14.794 23.0024 14.669 23.0203 14.5797 23.0203C14.4012 23.0203 14.3298 22.9129 14.3298 22.7339V21.9644H14.9368V21.6244ZM18.1149 21.5886C17.9007 21.5886 17.7578 21.696 17.6686 21.8391V21.6244H17.2936V23.3424H17.6686V22.376C17.6686 22.0897 17.7935 21.9286 18.0257 21.9286C18.0971 21.9286 18.1863 21.9465 18.2578 21.9644L18.3649 21.6065C18.2935 21.5886 18.1863 21.5886 18.1149 21.5886ZM13.3121 21.7675C13.1335 21.6423 12.8836 21.5886 12.6157 21.5886C12.1872 21.5886 11.9016 21.8033 11.9016 22.1434C11.9016 22.4297 12.1158 22.5908 12.4908 22.6444L12.6693 22.6623C12.8657 22.6981 12.9728 22.7518 12.9728 22.8413C12.9728 22.9666 12.83 23.056 12.58 23.056C12.3301 23.056 12.1337 22.9666 12.0087 22.8771L11.8301 23.1634C12.0265 23.3066 12.2944 23.3782 12.5622 23.3782C13.0621 23.3782 13.3478 23.1455 13.3478 22.8234C13.3478 22.5192 13.1157 22.3581 12.7586 22.3044L12.58 22.2865C12.4193 22.2686 12.2944 22.2328 12.2944 22.1255C12.2944 22.0002 12.4193 21.9286 12.6157 21.9286C12.83 21.9286 13.0443 22.0181 13.1514 22.0718L13.3121 21.7675ZM23.2749 21.5886C23.0606 21.5886 22.9178 21.696 22.8285 21.8391V21.6244H22.4536V23.3424H22.8285V22.376C22.8285 22.0897 22.9535 21.9286 23.1856 21.9286C23.257 21.9286 23.3463 21.9465 23.4177 21.9644L23.5248 21.6065C23.4534 21.5886 23.3463 21.5886 23.2749 21.5886ZM18.4899 22.4834C18.4899 23.0024 18.847 23.3782 19.4005 23.3782C19.6504 23.3782 19.829 23.3245 20.0075 23.1813L19.829 22.8771C19.6861 22.9845 19.5433 23.0381 19.3826 23.0381C19.0791 23.0381 18.8648 22.8234 18.8648 22.4834C18.8648 22.1612 19.0791 21.9465 19.3826 21.9286C19.5433 21.9286 19.6861 21.9823 19.829 22.0897L20.0075 21.7854C19.829 21.6423 19.6504 21.5886 19.4005 21.5886C18.847 21.5886 18.4899 21.9644 18.4899 22.4834ZM21.9536 22.4834V21.6244H21.5787V21.8391C21.4537 21.6781 21.2752 21.5886 21.0431 21.5886C20.561 21.5886 20.1861 21.9644 20.1861 22.4834C20.1861 23.0024 20.561 23.3782 21.0431 23.3782C21.293 23.3782 21.4716 23.2887 21.5787 23.1276V23.3424H21.9536V22.4834ZM20.5789 22.4834C20.5789 22.1791 20.7753 21.9286 21.0966 21.9286C21.4002 21.9286 21.6144 22.1612 21.6144 22.4834C21.6144 22.7876 21.4002 23.0381 21.0966 23.0381C20.7753 23.0203 20.5789 22.7876 20.5789 22.4834ZM16.0974 21.5886C15.5974 21.5886 15.2404 21.9465 15.2404 22.4834C15.2404 23.0203 15.5974 23.3782 16.1152 23.3782C16.3652 23.3782 16.6152 23.3066 16.8116 23.1455L16.633 22.8771C16.4902 22.9845 16.3116 23.056 16.1331 23.056C15.901 23.056 15.6689 22.9487 15.6153 22.6444H16.883C16.883 22.5908 16.883 22.555 16.883 22.5013C16.9008 21.9465 16.5794 21.5886 16.0974 21.5886ZM16.0974 21.9107C16.3295 21.9107 16.4902 22.0539 16.5259 22.3223H15.6332C15.6689 22.0897 15.8296 21.9107 16.0974 21.9107ZM25.3996 22.4834V20.9443H25.0246V21.8391C24.8996 21.6781 24.7211 21.5886 24.489 21.5886C24.0069 21.5886 23.632 21.9644 23.632 22.4834C23.632 23.0024 24.0069 23.3782 24.489 23.3782C24.7389 23.3782 24.9175 23.2887 25.0246 23.1276V23.3424H25.3996V22.4834ZM24.0248 22.4834C24.0248 22.1791 24.2212 21.9286 24.5425 21.9286C24.8461 21.9286 25.0603 22.1612 25.0603 22.4834C25.0603 22.7876 24.8461 23.0381 24.5425 23.0381C24.2212 23.0203 24.0248 22.7876 24.0248 22.4834ZM11.4909 22.4834V21.6244H11.116V21.8391C10.991 21.6781 10.8124 21.5886 10.5803 21.5886C10.0983 21.5886 9.72331 21.9644 9.72331 22.4834C9.72331 23.0024 10.0983 23.3782 10.5803 23.3782C10.8303 23.3782 11.0088 23.2887 11.116 23.1276V23.3424H11.4909V22.4834ZM10.0983 22.4834C10.0983 22.1791 10.2947 21.9286 10.616 21.9286C10.9196 21.9286 11.1338 22.1612 11.1338 22.4834C11.1338 22.7876 10.9196 23.0381 10.616 23.0381C10.2947 23.0203 10.0983 22.7876 10.0983 22.4834Z" fill="black"/>
<g id="XMLID_328_">
<path id="rect19" d="M18.8117 8.57812H13.1875V18.7072H18.8117V8.57812Z" fill="#FF5F00"/>
<path id="XMLID_330_" d="M13.5449 13.6427C13.5449 11.5847 14.509 9.7593 15.9909 8.57818C14.9018 7.71918 13.527 7.2002 12.0272 7.2002C8.47418 7.2002 5.59961 10.0814 5.59961 13.6427C5.59961 17.204 8.47418 20.0852 12.0272 20.0852C13.527 20.0852 14.9018 19.5662 15.9909 18.7072C14.509 17.544 13.5449 15.7007 13.5449 13.6427Z" fill="#EB001B"/>
<path id="path22" d="M26.3991 13.6427C26.3991 17.204 23.5246 20.0852 19.9715 20.0852C18.4717 20.0852 17.0969 19.5662 16.0078 18.7072C17.5076 17.5261 18.4539 15.7007 18.4539 13.6427C18.4539 11.5847 17.4897 9.7593 16.0078 8.57818C17.0969 7.71918 18.4717 7.2002 19.9715 7.2002C23.5246 7.2002 26.3991 10.0993 26.3991 13.6427Z" fill="#F79E1B"/>
</g>
</g>
</g>
</svg>
